<?xml version="1.0" encoding="UTF-8"?>
<svg version="1.1" xmlns="http://www.w3.org/2000/svg" width="500" height="500">
<path d="M0 0 C165 0 330 0 500 0 C500 165 500 330 500 500 C335 500 170 500 0 500 C0 335 0 170 0 0 Z " fill="#111111" transform="translate(0,0)"/>
<path d="M0 0 C11.55 0 23.1 0 35 0 C35 42.9 35 85.8 35 130 C75.92 130 116.84 130 159 130 C159 87.43 159 44.86 159 1 C170.55 1 182.1 1 194 1 C194 97.03 194 193.06 194 292 C182.45 292 170.9 292 159 292 C159 249.1 159 206.2 159 162 C118.08 162 77.16 162 35 162 C35 204.9 35 247.8 35 292 C23.45 292 11.9 292 0 292 C0 195.64 0 99.28 0 0 Z " fill="#C8C8C8" transform="translate(153,116)"/>
</svg>
