<?xml version="1.0" encoding="UTF-8"?>
<svg version="1.1" xmlns="http://www.w3.org/2000/svg" width="500" height="500">
<path d="M0 0 C165 0 330 0 500 0 C500 165 500 330 500 500 C335 500 170 500 0 500 C0 335 0 170 0 0 Z " fill="#111111" transform="translate(0,0)"/>
<path d="M0 0 C10.23 0 20.46 0 31 0 C33.98166866 23.98887969 33.98166866 23.98887969 34.9375 35.875 C35.62008447 44.26227468 36.5098948 52.60950347 37.50143433 60.96572876 C39.54250872 78.18317483 41.23271801 95.42781941 42.875 112.6875 C44.93585131 134.34611454 47.14141155 155.98336778 49.50619507 177.61135864 C51.33382509 194.35593788 52.96639225 211.10734574 54.42816162 227.88766479 C55.38498898 238.84578162 56.41398207 249.76056902 58.13745117 260.63134766 C58.94573232 265.81322047 59.10382296 270.75174942 59 276 C60.65 276 62.3 276 64 276 C64.04902969 274.88453293 64.09805939 273.76906586 64.14857483 272.61979675 C64.73749586 260.01506479 65.78834263 247.48460171 66.99609375 234.92578125 C67.19193366 232.86136975 67.38748937 230.79693128 67.58277893 228.73246765 C67.98963321 224.44046361 68.39915168 220.14872544 68.81079102 215.85717773 C69.33397548 210.40154795 69.85151516 204.94540107 70.36718655 199.48905659 C70.76942109 195.23768906 71.17410227 190.98655718 71.57954597 186.73549461 C71.77109508 184.72523965 71.96204547 182.71492754 72.15234184 180.7045536 C73.14262643 170.26177082 74.20331983 159.84353784 75.57478333 149.44329834 C76.24982922 143.97694541 76.66898927 138.49353839 77.09039307 133.00271606 C78.49014908 114.89072965 80.20214064 96.80660448 81.92015076 78.72267532 C82.12474525 76.56518643 82.3282156 74.40759422 82.53137207 72.24996948 C82.9159632 68.16762124 83.30527722 64.08573802 83.6953125 60.00390625 C83.81188202 58.76581207 83.92845154 57.5277179 84.04855347 56.25210571 C84.15902008 55.10615936 84.26948669 53.96021301 84.38330078 52.77954102 C84.47862091 51.78003922 84.57394104 50.78053741 84.67214966 49.75074768 C84.9850388 47.12552829 85.47584284 44.58962014 86 42 C86.15046636 40.63592915 86.27525245 39.26875795 86.37304688 37.89990234 C86.42980591 37.12915375 86.48656494 36.35840515 86.54504395 35.56430054 C86.60236694 34.74644073 86.65968994 33.92858093 86.71875 33.0859375 C86.84763418 31.33854004 86.97654111 29.59114425 87.10546875 27.84375 C87.30400745 25.10066445 87.50125424 22.35749017 87.69775391 19.61425781 C87.88906129 16.95874042 88.08497063 14.3035913 88.28125 11.6484375 C88.338573 10.82652924 88.395896 10.00462097 88.45495605 9.1578064 C88.69498429 5.92504858 88.97040901 3.08877298 90 0 C111.45 0 132.9 0 155 0 C155.44730469 4.929375 155.89460937 9.85875 156.35546875 14.9375 C156.96444538 21.62515579 157.57548124 28.31262197 158.1875 35 C158.30645378 36.30010576 158.30645378 36.30010576 158.42781067 37.62647629 C160.41077049 59.28559171 162.43864987 80.93551947 164.75 102.5625 C166.17446189 115.90264983 167.5065313 129.23758003 168.59970093 142.60900879 C170.13676267 161.35905452 172.01240346 180.07816445 173.84350586 198.80126953 C174.09497165 201.37401539 174.34635653 203.94676916 174.59765625 206.51953125 C174.7193367 207.76522385 174.84101715 209.01091644 174.96638489 210.2943573 C175.87857642 219.66853636 176.74459097 229.04629719 177.58666992 238.42700195 C177.9206852 242.144232 178.27053831 245.85961986 178.6328125 249.57421875 C178.71660156 250.44626953 178.80039062 251.31832031 178.88671875 252.21679688 C179.04975112 253.90725549 179.21660014 255.59734918 179.38671875 257.28710938 C179.97858218 263.53925398 180.09449918 269.72180478 180 276 C181.65 276 183.3 276 185 276 C185.08942368 275.07154266 185.17884735 274.14308533 185.27098083 273.18649292 C188.1720715 243.10622092 191.20403987 213.03958689 194.26391602 182.97509766 C194.93307334 176.39991745 195.60030171 169.82454305 196.26703739 163.2491169 C196.79210516 158.07354736 197.31836204 152.89809921 197.84493828 147.72268295 C198.09126529 145.30004749 198.33721069 142.87737318 198.5827198 140.45465469 C199.97965371 126.67538457 201.42928612 112.90406289 202.99227238 99.142519 C203.72857343 92.62210072 204.38161576 86.10077078 204.9375 79.5625 C205.52819904 72.74938869 206.21218033 65.95186117 206.9765625 59.15625 C207.06496902 58.36999741 207.15337555 57.58374481 207.24446106 56.77366638 C207.68746731 52.84847712 208.13624883 48.92402511 208.59155273 45.00024414 C209.53568904 36.7754553 210.27473722 28.58465438 210.77856445 20.31958008 C211.06363791 16.04599264 211.52338021 11.81028998 212.0625 7.5625 C212.371875 5.066875 212.68125 2.57125 213 0 C223.56 0 234.12 0 245 0 C243.87498428 16.87523582 243.87498428 16.87523582 243.23828125 23.140625 C243.16736267 23.84551559 243.09644409 24.55040619 243.02337646 25.2766571 C242.7888568 27.60135912 242.55070096 29.92567255 242.3125 32.25 C242.13902594 33.96164808 241.96577569 35.67331886 241.79272461 37.38500977 C241.40960507 41.16910606 241.02475986 44.95302184 240.63867188 48.73681641 C239.94912387 55.49484373 239.26364807 62.25328216 238.578125 69.01171875 C237.30025952 81.60416987 236.01819508 94.19619087 234.73486328 106.78808594 C234.16398357 112.38961619 233.59383344 117.99122025 233.02407837 123.59286499 C230.39522393 149.43595952 227.73686431 175.27590779 225.0546875 201.11352539 C223.97908198 211.47967917 222.90537204 221.8460508 221.85546875 232.21484375 C221.77504837 232.99954544 221.69462799 233.78424713 221.61177063 234.59272766 C221.13762718 239.30890848 220.78030972 244.01822888 220.5 248.75 C220.02052727 256.55615256 218.99907008 264.24251468 218 272 C217.01 281.405 217.01 281.405 216 291 C194.55 291 173.1 291 151 291 C148.6875 264.3125 148.6875 264.3125 147.97924805 256.0324707 C146.94954923 244.22206786 145.8217831 232.46932587 143.9740448 220.75495911 C143.15897184 215.54083959 142.70389298 210.39809859 142.5 205.125 C142.44670532 203.87698608 142.44670532 203.87698608 142.39233398 202.60375977 C142.36469971 201.91080811 142.33706543 201.21785645 142.30859375 200.50390625 C141.95760293 193.3379575 141.24902613 186.20232947 140.5625 179.0625 C140.44003906 177.75877441 140.31757813 176.45504883 140.19140625 175.11181641 C140.00578125 173.21761963 140.00578125 173.21761963 139.81640625 171.28515625 C139.70756104 170.17019775 139.59871582 169.05523926 139.48657227 167.90649414 C139.09719558 164.78034447 138.5961452 161.73824275 138.03442383 158.6418457 C136.81047086 151.42729121 136.3071606 144.1866749 135.80327988 136.89577866 C134.30972174 115.42590129 132.262764 94.01694711 130.14379883 72.60144043 C129.77783168 68.88941672 129.41688897 65.17691057 129.0559063 61.46439934 C128.70441378 57.85430812 128.35038631 54.24446919 127.99551773 50.6347084 C127.82820852 48.93076156 127.66155704 47.22674998 127.49560165 45.52267075 C127.26634189 43.17354953 127.03378812 40.82477772 126.80029297 38.47607422 C126.73379547 37.78856079 126.66729797 37.10104736 126.5987854 36.3927002 C126.24526877 32.87429686 125.71311366 29.46116599 125 26 C124.93466565 24.06348981 124.91415697 22.12497139 124.9375 20.1875 C124.94652344 19.21167969 124.95554687 18.23585937 124.96484375 17.23046875 C124.97644531 16.49441406 124.98804688 15.75835937 125 15 C123.02 15 121.04 15 119 15 C119.05087769 16.89999756 119.05087769 16.89999756 119.1027832 18.83837891 C119.09671147 27.12293955 118.14928028 35.34790813 117.35546875 43.5859375 C117.18293557 45.41025466 117.01076785 47.23460642 116.83894348 49.05899048 C116.47776207 52.8836803 116.11352058 56.70806143 115.74682617 60.53222656 C115.28531666 65.34568539 114.82926487 70.15963956 114.37525749 74.97381115 C112.70556679 92.67023416 110.99993804 110.35921577 109.0644989 128.02879333 C107.54661471 141.98244454 106.28630946 155.96102751 105 169.9375 C103.34912367 187.85799906 101.63697489 205.76880225 99.76318359 223.66772461 C98.95172614 231.42865239 98.17019435 239.19246566 97.39453125 246.95703125 C97.27768478 248.12602966 97.16083832 249.29502808 97.04045105 250.49945068 C96.63069499 254.60375665 96.22163412 258.70813199 95.8125 262.8125 C94.884375 272.114375 93.95625 281.41625 93 291 C71.88 291 50.76 291 29 291 C27.81872078 282.14040584 26.66009056 273.334314 25.78125 264.44921875 C25.67784302 263.42552689 25.57443604 262.40183502 25.46789551 261.34712219 C25.14300675 258.1274703 24.82129641 254.90751217 24.5 251.6875 C24.07418603 247.44127792 23.64690428 243.19520546 23.21875 238.94921875 C23.11365112 237.90483643 23.00855225 236.8604541 22.90026855 235.78442383 C22.32354524 230.08480183 21.71488925 224.39061377 21.0625 218.69921875 C20.05529066 209.85387976 19.20336238 200.99341618 18.34375 192.1328125 C18.1932485 190.58463941 18.04273573 189.03646742 17.89221191 187.48829651 C17.26932294 181.07611865 16.64743703 174.6638493 16.03173828 168.25097656 C15.65044174 164.2811515 15.26506189 160.31174 14.87715149 156.342556 C14.73214797 154.85101649 14.58861612 153.35933303 14.44670105 151.86749649 C13.70444498 144.07010455 12.83901143 136.34055117 11.43077087 128.63032532 C10.64045585 123.80459143 10.38009704 118.93812298 10.0625 114.0625 C9.41819436 104.87679651 8.60718679 95.72271386 7.6328125 86.56640625 C7.36548098 84.01653698 7.09831544 81.46665031 6.83129883 78.91674805 C6.69422516 77.61329437 6.55715149 76.3098407 6.41592407 74.96688843 C5.32624149 64.57400785 4.26451678 54.17825949 3.21020508 43.78173828 C2.94176366 41.1447834 2.67167813 38.50806265 2.39868164 35.87158203 C1.99529065 31.97490398 1.60091848 28.07733814 1.20703125 24.1796875 C1.08519974 23.01500946 0.96336823 21.85033142 0.83784485 20.65036011 C0.72740341 19.54354889 0.61696198 18.43673767 0.50317383 17.29638672 C0.40563309 16.34238983 0.30809235 15.38839294 0.20759583 14.40548706 C-0.08460789 9.61205746 0 4.8023276 0 0 Z " fill="#C7C7C7" transform="translate(128,115)"/>
<path d="M0 0 C0.26618595 6.95041086 -0.3879491 13.23514355 -2 20 C-3.65 20 -5.3 20 -7 20 C-7.33 14.39 -7.66 8.78 -8 3 C-7.34 3.66 -6.68 4.32 -6 5 C-5.195625 4.175 -4.39125 3.35 -3.5625 2.5 C-1 0 -1 0 0 0 Z " fill="#181818" transform="translate(315,371)"/>
<path d="M0 0 C0.33 0 0.66 0 1 0 C0.67 5.61 0.34 11.22 0 17 C-0.33 17 -0.66 17 -1 17 C-1.33 14.03 -1.66 11.06 -2 8 C-3.65 8 -5.3 8 -7 8 C-7 6.68 -7 5.36 -7 4 C-3.98968256 3.06576355 -3.13349732 2.95550089 0 4 C0 2.68 0 1.36 0 0 Z " fill="#2F2F2F" transform="translate(338,140)"/>
<path d="M0 0 C0.33 0.99 0.66 1.98 1 3 C-0.4375 5.1875 -0.4375 5.1875 -2 7 C-2.66 6.67 -3.32 6.34 -4 6 C-4 4.35 -4 2.7 -4 1 C-2.68 0.67 -1.36 0.34 0 0 Z " fill="#171717" transform="translate(135,199)"/>
</svg>
