<?xml version="1.0" encoding="UTF-8"?>
<svg version="1.1" xmlns="http://www.w3.org/2000/svg" width="500" height="500">
<path d="M0 0 C165 0 330 0 500 0 C500 165 500 330 500 500 C335 500 170 500 0 500 C0 335 0 170 0 0 Z " fill="#111111" transform="translate(0,0)"/>
<path d="M0 0 C12.87 0 25.74 0 39 0 C55.71662304 35.33595113 55.71662304 35.33595113 62.5 50 C67.44643392 60.69237052 72.4611481 71.35095479 77.5 82 C83.66764321 95.03648179 89.78873597 108.09252225 95.83984375 121.18359375 C97.79636654 125.41436525 99.76669921 129.63818044 101.75302124 133.85501099 C102.98021603 136.46093912 104.20329021 139.06879199 105.42614746 141.67675781 C106.01191625 142.92299887 106.59969105 144.16829924 107.1895752 145.41259766 C108.00263041 147.12810098 108.80814082 148.84717405 109.61328125 150.56640625 C110.07516846 151.54552979 110.53705566 152.52465332 111.01293945 153.53344727 C112 156 112 156 112 159 C113.98 159 115.96 159 118 159 C118.56074219 157.15341797 118.56074219 157.15341797 119.1328125 155.26953125 C121.17753394 149.14848942 124.02458676 143.46632182 126.875 137.6875 C128.0524347 135.27161762 129.22853004 132.85513837 130.40234375 130.4375 C130.70211624 129.82102097 131.00188873 129.20454193 131.31074524 128.56938171 C134.42876924 122.14391932 137.44076265 115.67032234 140.4375 109.1875 C140.9732666 108.02951904 141.5090332 106.87153809 142.06103516 105.6784668 C143.1560661 103.31101316 144.25079107 100.94341797 145.34521484 98.57568359 C148.13596055 92.54540008 150.94101209 86.52180138 153.75 80.5 C154.17789825 79.58246445 154.17789825 79.58246445 154.61444092 78.64639282 C159.91888539 67.27640879 165.27607597 55.93155321 170.64343262 44.59115601 C174.43369265 36.58223449 178.21203287 28.56846194 181.93359375 20.52734375 C182.23987198 19.86571228 182.54615021 19.20408081 182.86170959 18.5223999 C184.29644748 15.42079036 185.7274695 12.3175516 187.15454102 9.21240234 C187.65010498 8.13812988 188.14566895 7.06385742 188.65625 5.95703125 C189.08744141 5.01835205 189.51863281 4.07967285 189.96289062 3.11254883 C191 1 191 1 192 0 C194.8843382 -0.08865208 197.74462158 -0.11521296 200.62890625 -0.09765625 C201.92525246 -0.09553383 201.92525246 -0.09553383 203.24778748 -0.09336853 C206.01939292 -0.08775239 208.7909188 -0.07519719 211.5625 -0.0625 C213.4368478 -0.05748708 215.31119685 -0.05292381 217.18554688 -0.04882812 C221.79039544 -0.03777772 226.39518421 -0.0205023 231 0 C224.96534968 13.93340727 218.40604919 27.57275563 211.6875 41.1875 C209.73132011 45.15929542 207.77715436 49.13207718 205.82421875 53.10546875 C205.10210457 54.57412384 205.10210457 54.57412384 204.36540222 56.07244873 C199.5624079 65.85867986 194.86530636 75.69466184 190.1758728 85.53567505 C187.57288944 90.99085425 184.94275285 96.43292679 182.3125 101.875 C181.73127061 103.07844476 181.15005361 104.28189549 180.56884766 105.48535156 C177.37595608 112.09463067 174.17657427 118.70074695 170.97265625 125.3046875 C170.63496216 126.000746 170.29726807 126.6968045 169.94934082 127.41395569 C168.58477346 130.22643594 167.22014987 133.03888881 165.85516357 135.85116577 C161.35766242 145.11814087 156.88464095 154.39622804 152.4375 163.6875 C148.37736637 172.16943417 144.25940896 180.61616334 140 189 C137.69 189 135.38 189 133 189 C133 222.99 133 256.98 133 292 C121.45 292 109.9 292 98 292 C98 257.68 98 223.36 98 188 C95.36 188 92.72 188 90 188 C89.56171875 187.1234375 89.1234375 186.246875 88.671875 185.34375 C88.3730542 184.74618896 88.0742334 184.14862793 87.76635742 183.53295898 C87.07094896 182.14197502 86.37581214 180.75085522 85.6809082 179.35961914 C83.52138888 175.03735939 81.3559093 170.71818779 79.18359375 166.40234375 C73.84888966 155.79020324 68.59602684 145.14701823 63.49682617 134.41967773 C59.21565846 125.42144434 54.86023725 116.46008718 50.5 107.5 C45.37717936 96.97041517 40.27779533 86.43102374 35.2421875 75.859375 C30.6752633 66.28797697 26.02969858 56.75495236 21.39007568 47.21865845 C16.32471482 36.80599762 11.28692635 26.38135416 6.31054688 15.92578125 C5.91158203 15.08789062 5.51261719 14.25 5.1015625 13.38671875 C4.7396582 12.62407715 4.37775391 11.86143555 4.00488281 11.07568359 C3.1096758 9.22654607 2.16366579 7.40219992 1.2109375 5.58203125 C0 3 0 3 0 0 Z " fill="#9CFB00" transform="translate(135,117)"/>
</svg>
